<?xml version="1.0" encoding="utf-8"?>
<!-- Generator: Adobe Illustrator 14.0.0, SVG Export Plug-In . SVG Version: 6.00 Build 43363)  -->
<!DOCTYPE svg PUBLIC "-//W3C//DTD SVG 1.1//EN" "http://www.w3.org/Graphics/SVG/1.1/DTD/svg11.dtd">
<svg version="1.1" id="Capa_1" xmlns="http://www.w3.org/2000/svg" xmlns:xlink="http://www.w3.org/1999/xlink" x="0px" y="0px"
	 width="408.14px" height="142.926px" viewBox="0 0 408.14 142.926" enable-background="new 0 0 408.14 142.926"
	 xml:space="preserve">
<title>logo_ucu_2</title>
<path fill="#FFFFFF" d="M326.983,86.133V23.989h20.874v60.226c0,11.236,5.645,18.852,17.945,18.852
	c11.502,0,17.679-6.443,17.679-18.852V23.989h20.606v60.918c0,23.323-16.348,36.157-38.711,36.157
	C342.267,121.065,326.983,109.563,326.983,86.133"/>
<path fill="#FFFFFF" d="M144.124,86.133V23.989h20.874v60.226c0,11.236,5.645,18.852,17.945,18.852
	c11.502,0,17.679-6.443,17.679-18.852V23.989h20.607v60.918c0,23.323-16.349,36.157-38.712,36.157
	C159.353,121.065,144.124,109.563,144.124,86.133"/>
<path fill="#FFFFFF" d="M57.38,4.074C26.814,4.129,2.053,28.889,2,59.455v26.092c0,30.564,24.814,55.379,55.38,55.379
	s55.38-24.813,55.38-55.379V59.455C112.707,28.889,87.945,4.129,57.38,4.074 M57.38,130.17c-24.655,0-44.624-19.969-44.677-44.623
	V59.455c0-24.654,19.969-44.677,44.677-44.677s44.677,19.97,44.677,44.677v26.092C102.003,110.201,82.035,130.17,57.38,130.17"/>
<path fill="#FFFFFF" d="M22.738,103.889h65.284c1.917-2.981,3.354-6.23,4.26-9.639H18.478
	C19.436,97.657,20.874,100.906,22.738,103.889"/>
<path fill="#FFFFFF" d="M29.181,111.557c6.816,6.177,15.709,9.638,24.921,9.638h2.502c9.212,0,18.105-3.461,24.921-9.638H29.181z"/>
<polygon fill="#FFFFFF" points="66.456,42.385 58.415,42.385 58.415,50.373 52.345,50.373 52.345,42.385 44.304,42.385 
	44.304,35.994 52.345,35.994 52.345,28.008 58.415,28.008 58.415,35.994 66.456,35.994 "/>
<polygon fill="#FFFFFF" points="55.38,64.164 17.839,85.783 17.839,86.688 92.921,86.688 92.921,85.783 "/>
<path fill="#FFFFFF" d="M236.085,87.303V57.59c0-23.057,18.105-35.197,39.086-35.197c18.371,0,37.647,9.798,37.647,31.471v3.78
	h-19.702v-1.917c0-11.129-9.746-15.655-17.785-15.655c-8.733,0-18.479,4.687-18.479,16.88v29.713
	c0,10.598,8.572,16.721,19.01,16.721c8.041,0,17.254-4.579,17.254-15.813v-1.758h19.702v3.728c0,21.674-18.638,31.471-37.114,31.471
	C254.83,121.065,236.085,109.936,236.085,87.303"/>
</svg>
